<svg width="66" height="44" viewBox="0 0 66 44" fill="none" xmlns="http://www.w3.org/2000/svg">
<path d="M64.7508 32.9097C64.1851 32.9097 63.7265 33.3682 63.7265 33.934V38.1586C63.7265 40.25 62.025 41.9515 59.9335 41.9515H5.84168C3.75014 41.9515 2.04866 40.25 2.04866 38.1586V6.4923C2.04866 4.4009 3.75014 2.69929 5.84168 2.69929H17.9804C18.5461 2.69929 19.0047 2.2408 19.0047 1.67496C19.0047 1.10912 18.5461 0.650635 17.9804 0.650635H5.84168C2.62064 0.650635 0 3.27114 0 6.4923V38.1585C0 41.3795 2.62064 44 5.84168 44H59.9335C63.1545 44 65.7751 41.3794 65.7751 38.1585V33.9339C65.7751 33.3682 65.3165 32.9097 64.7508 32.9097Z" fill="#AE7C78"/>
</svg>
